<svg width="40" height="40" viewBox="0 0 40 40" fill="none" xmlns="http://www.w3.org/2000/svg">
<mask id="mask0_59244_68816" style="mask-type:alpha" maskUnits="userSpaceOnUse" x="6" y="6" width="28" height="28">
<path fill-rule="evenodd" clip-rule="evenodd" d="M27.696 6.92188C28.0685 6.92188 28.3932 7.17532 28.4836 7.53663L28.8121 8.84951C28.9646 9.45964 29.2801 10.0171 29.7248 10.4618C30.1695 10.9065 30.7267 11.2219 31.3368 11.3744L32.6499 11.703C33.0113 11.7934 33.2647 12.1181 33.2647 12.4905C33.2647 12.863 33.0113 13.1877 32.6499 13.2781L31.3371 13.6066C30.7269 13.7591 30.1695 14.0746 29.7248 14.5193C29.2801 14.964 28.9647 15.5212 28.8122 16.1313L28.4836 17.4444C28.3932 17.8058 28.0685 18.0592 27.696 18.0592C27.3236 18.0592 26.9989 17.8058 26.9085 17.4444L26.5799 16.1316C26.4276 15.5216 26.1122 14.9641 25.6677 14.5195C25.2232 14.0748 24.6663 13.7593 24.0565 13.6067L22.7423 13.2781C22.3809 13.1878 22.1274 12.8631 22.1274 12.4905C22.1274 12.118 22.3809 11.7933 22.7423 11.7029L24.0563 11.3745C24.6661 11.2218 25.2232 10.9062 25.6677 10.4616C26.1122 10.0169 26.4275 9.45982 26.5799 8.84982L26.9085 7.53663C26.9989 7.17532 27.3236 6.92188 27.696 6.92188ZM25.6334 12.4905C26.0663 12.7242 26.4651 13.0205 26.816 13.3716C27.1667 13.7224 27.4626 14.121 27.6961 14.5536C27.9297 14.1208 28.2258 13.7221 28.5767 13.3712C28.9277 13.0202 29.3263 12.7241 29.7592 12.4905C29.3263 12.2569 28.9277 11.9608 28.5767 11.6099C28.2258 11.2589 27.9297 10.8603 27.6961 10.4275C27.4626 10.8601 27.1667 11.2586 26.816 11.6095C26.4651 11.9606 26.0663 12.2568 25.6334 12.4905ZM16.2797 10.7273C16.6422 10.7274 16.9607 10.9677 17.0603 11.3162L18.0915 14.9262C18.3201 15.726 18.7488 16.4545 19.3371 17.0428C19.9253 17.631 20.6538 18.0597 21.4537 18.2883L25.0651 19.3209C25.4136 19.4205 25.6538 19.7391 25.6538 20.1016C25.6537 20.464 25.4134 20.7825 25.0649 20.8821L21.4549 21.9133C20.6551 22.142 19.9266 22.5707 19.3383 23.1589C18.7501 23.7471 18.3214 24.4756 18.0928 25.2755C18.0893 25.2875 18.0856 25.2995 18.0816 25.3113L17.0603 28.8868C16.9607 29.2353 16.6421 29.4756 16.2796 29.4756C15.9172 29.4756 15.5986 29.2353 15.499 28.8868L14.4678 25.2768C14.2391 24.4769 13.8105 23.7484 13.2222 23.1602C12.634 22.5719 11.9055 22.1432 11.1056 21.9146L7.49418 20.882C7.1457 20.7824 6.90548 20.4638 6.90552 20.1014C6.90556 19.7389 7.14585 19.4204 7.49436 19.3209L11.1044 18.2896C11.9042 18.061 12.6327 17.6323 13.221 17.044C13.8092 16.4558 14.2379 15.7273 14.4665 14.9274L15.4991 11.316C15.5987 10.9675 15.9173 10.7273 16.2797 10.7273ZM16.2793 14.4936L16.0277 15.3737C15.7232 16.4388 15.1524 17.4088 14.3691 18.1921C13.5857 18.9755 12.6157 19.5463 11.5506 19.8508L10.6717 20.1018L11.5518 20.3534C12.617 20.6579 13.587 21.2287 14.3703 22.0121C15.1537 22.7954 15.7245 23.7654 16.0289 24.8305L16.2796 25.7082L16.5303 24.8307C16.534 24.8178 16.538 24.805 16.5423 24.7924C16.8493 23.7417 17.416 22.7851 18.1902 22.0108C18.9736 21.2275 19.9436 20.6566 21.0087 20.3522L21.8875 20.1011L21.0074 19.8495C19.9423 19.545 18.9723 18.9742 18.189 18.1909C17.4056 17.4075 16.8348 16.4375 16.5304 15.3724L16.2793 14.4936ZM25.7933 24.0465C26.1428 24.0465 26.4531 24.2702 26.5635 24.6018L27.0633 26.1022C27.1635 26.4029 27.3325 26.6763 27.5566 26.9004C27.7807 27.1246 28.054 27.2935 28.3547 27.3937L29.8553 27.8935C30.1869 28.004 30.4106 28.3142 30.4106 28.6638C30.4106 29.0133 30.1869 29.3236 29.8553 29.434L28.3549 29.9337C28.0542 30.034 27.7807 30.2029 27.5566 30.4271C27.3325 30.6512 27.1636 30.9244 27.0633 31.2251L26.5635 32.7258C26.4531 33.0574 26.1428 33.2811 25.7933 33.2811C25.4438 33.2811 25.1335 33.0574 25.0231 32.7258L24.5233 31.2253C24.4231 30.9246 24.2541 30.6512 24.03 30.4271C23.8058 30.2029 23.5325 30.034 23.2317 29.9337L21.7313 29.434C21.3997 29.3236 21.176 29.0133 21.176 28.6638C21.176 28.3142 21.3997 28.004 21.7313 27.8935L23.2317 27.3938C23.5325 27.2935 23.8058 27.1246 24.03 26.9004C24.2541 26.6763 24.423 26.4031 24.5233 26.1024L25.0231 24.6018C25.1335 24.2702 25.4438 24.0465 25.7933 24.0465ZM25.7933 27.2316C25.6279 27.5304 25.4211 27.8055 25.1781 28.0486C24.9351 28.2916 24.6599 28.4984 24.3612 28.6638C24.6599 28.8291 24.9351 29.036 25.1781 29.279C25.4211 29.522 25.6279 29.7971 25.7933 30.0959C25.9587 29.7971 26.1655 29.522 26.4085 29.279C26.6515 29.036 26.9267 28.8291 27.2254 28.6638C26.9267 28.4984 26.6515 28.2916 26.4085 28.0486C26.1655 27.8055 25.9587 27.5304 25.7933 27.2316Z" fill="white"/>
<path d="M24.0565 13.6067C24.6663 13.7593 25.2232 14.0748 25.6677 14.5195C26.1122 14.9641 26.4276 15.5216 26.5799 16.1316L26.9085 17.4444C26.9989 17.8058 27.3236 18.0592 27.696 18.0592C28.0685 18.0592 28.3932 17.8058 28.4836 17.4444L28.8122 16.1313C28.9647 15.5212 29.2801 14.964 29.7248 14.5193C30.1695 14.0746 30.7269 13.7591 31.3371 13.6066L32.6499 13.2781C33.0113 13.1877 33.2647 12.863 33.2647 12.4905C33.2647 12.1181 33.0113 11.7934 32.6499 11.703L31.3368 11.3744C30.7267 11.2219 30.1695 10.9065 29.7248 10.4618C29.2801 10.0171 28.9646 9.45964 28.8121 8.84951L28.4836 7.53663C28.3932 7.17532 28.0685 6.92188 27.696 6.92188C27.3236 6.92188 26.9989 7.17532 26.9085 7.53663L26.5799 8.84982C26.4275 9.45982 26.1122 10.0169 25.6677 10.4616C25.2232 10.9062 24.6661 11.2218 24.0563 11.3745M24.0565 13.6067V13.6067ZM24.0565 13.6067L22.7423 13.2781C22.3809 13.1878 22.1274 12.8631 22.1274 12.4905C22.1274 12.118 22.3809 11.7933 22.7423 11.7029L24.0563 11.3745M24.0563 11.3745V11.3745ZM18.0915 14.9262L17.0603 11.3162C16.9607 10.9677 16.6422 10.7274 16.2797 10.7273C15.9173 10.7273 15.5987 10.9675 15.4991 11.316L14.4665 14.9274C14.2379 15.7273 13.8092 16.4558 13.221 17.044C12.6327 17.6323 11.9042 18.061 11.1044 18.2896M18.0915 14.9262V14.9262ZM18.0915 14.9262C18.3201 15.726 18.7488 16.4545 19.3371 17.0428C19.9253 17.631 20.6538 18.0597 21.4537 18.2883L25.0651 19.3209C25.4136 19.4205 25.6538 19.7391 25.6538 20.1016C25.6537 20.464 25.4134 20.7825 25.0649 20.8821L21.4549 21.9133M21.4549 21.9133V21.9133ZM21.4549 21.9133C20.6551 22.142 19.9266 22.5707 19.3383 23.1589C18.7501 23.7471 18.3214 24.4756 18.0928 25.2755C18.0893 25.2875 18.0856 25.2995 18.0816 25.3113L17.0603 28.8868C16.9607 29.2353 16.6421 29.4756 16.2796 29.4756C15.9172 29.4756 15.5986 29.2353 15.499 28.8868L14.4678 25.2768M14.4678 25.2768V25.2768ZM14.4678 25.2768C14.2391 24.4769 13.8105 23.7484 13.2222 23.1602C12.634 22.5719 11.9055 22.1432 11.1056 21.9146L7.49418 20.882C7.1457 20.7824 6.90548 20.4638 6.90552 20.1014C6.90556 19.7389 7.14585 19.4204 7.49436 19.3209L11.1044 18.2896M11.1044 18.2896V18.2896ZM16.0277 15.3737L16.2793 14.4936L16.5304 15.3724C16.8348 16.4375 17.4056 17.4075 18.189 18.1909C18.9723 18.9742 19.9423 19.545 21.0074 19.8495M16.0277 15.3737V15.3737ZM16.0277 15.3737C15.7232 16.4388 15.1524 17.4088 14.3691 18.1921C13.5857 18.9755 12.6157 19.5463 11.5506 19.8508L10.6717 20.1018L11.5518 20.3534M11.5518 20.3534V20.3534ZM11.5518 20.3534C12.617 20.6579 13.587 21.2287 14.3703 22.0121C15.1537 22.7954 15.7245 23.7654 16.0289 24.8305L16.2796 25.7082L16.5303 24.8307C16.534 24.8178 16.538 24.805 16.5423 24.7924C16.8493 23.7417 17.416 22.7851 18.1902 22.0108C18.9736 21.2275 19.9436 20.6566 21.0087 20.3522L21.8875 20.1011L21.0074 19.8495M21.0074 19.8495V19.8495ZM27.0633 26.1022L26.5635 24.6018C26.4531 24.2702 26.1428 24.0465 25.7933 24.0465C25.4438 24.0465 25.1335 24.2702 25.0231 24.6018L24.5233 26.1024M27.0633 26.1022V26.1022ZM27.0633 26.1022C27.1635 26.4029 27.3325 26.6763 27.5566 26.9004C27.7807 27.1246 28.054 27.2935 28.3547 27.3937M28.3547 27.3937V27.3937ZM28.3547 27.3937L29.8553 27.8935C30.1869 28.004 30.4106 28.3142 30.4106 28.6638C30.4106 29.0133 30.1869 29.3236 29.8553 29.434L28.3549 29.9337M28.3549 29.9337V29.9337ZM28.3549 29.9337C28.0542 30.034 27.7807 30.2029 27.5566 30.4271C27.3325 30.6512 27.1636 30.9244 27.0633 31.2251M27.0633 31.2251V31.2251ZM27.0633 31.2251L26.5635 32.7258C26.4531 33.0574 26.1428 33.2811 25.7933 33.2811C25.4438 33.2811 25.1335 33.0574 25.0231 32.7258L24.5234 31.2253M24.5234 31.2253V31.2253ZM24.5234 31.2253C24.4231 30.9246 24.2541 30.6512 24.03 30.4271C23.8058 30.2029 23.5325 30.034 23.2317 29.9337L21.7313 29.434C21.3997 29.3236 21.176 29.0133 21.176 28.6638C21.176 28.3142 21.3997 28.004 21.7313 27.8935L23.2317 27.3938C23.5325 27.2935 23.8058 27.1246 24.03 26.9004C24.2541 26.6763 24.423 26.4031 24.5233 26.1024M24.5233 26.1024V26.1024ZM26.816 13.3716C26.4651 13.0205 26.0663 12.7242 25.6334 12.4905C26.0663 12.2568 26.4651 11.9606 26.816 11.6095C27.1667 11.2586 27.4626 10.8601 27.6961 10.4275C27.9297 10.8603 28.2258 11.2589 28.5767 11.6099C28.9277 11.9608 29.3263 12.2569 29.7592 12.4905C29.3263 12.7241 28.9277 13.0202 28.5767 13.3712C28.2258 13.7221 27.9297 14.1208 27.6961 14.5536C27.4626 14.121 27.1667 13.7224 26.816 13.3716ZM25.1781 28.0486C25.4211 27.8055 25.6279 27.5304 25.7933 27.2316C25.9587 27.5304 26.1655 27.8055 26.4085 28.0486C26.6515 28.2916 26.9267 28.4984 27.2254 28.6638C26.9267 28.8291 26.6515 29.036 26.4085 29.279C26.1655 29.522 25.9587 29.7971 25.7933 30.0959C25.6279 29.7971 25.4211 29.522 25.1781 29.279C24.9351 29.036 24.6599 28.8291 24.3612 28.6638C24.6599 28.4984 24.9351 28.2916 25.1781 28.0486Z" stroke="white" stroke-width="0.145396" stroke-linecap="round" stroke-linejoin="round"/>
</mask>
<g mask="url(#mask0_59244_68816)">
<g filter="url(#filter0_f_59244_68816)">
<circle cx="7.33477" cy="5.57073" r="19.6285" transform="rotate(-180 7.33477 5.57073)" fill="#DB93FF"/>
</g>
<g filter="url(#filter1_f_59244_68816)">
<circle cx="40.7759" cy="36.1024" r="18.9015" transform="rotate(-180 40.7759 36.1024)" fill="url(#paint0_linear_59244_68816)"/>
</g>
<g filter="url(#filter2_f_59244_68816)">
<circle cx="6.97126" cy="40.1026" r="18.538" transform="rotate(-180 6.97126 40.1026)" fill="#FF2D55"/>
</g>
<g filter="url(#filter3_f_59244_68816)">
<circle cx="3.33637" cy="25.5635" r="18.538" transform="rotate(-180 3.33637 25.5635)" fill="#FF607F"/>
</g>
<g filter="url(#filter4_f_59244_68816)">
<circle cx="25.5093" cy="-1.70145" r="17.4475" transform="rotate(-180 25.5093 -1.70145)" fill="#32ADE6"/>
</g>
</g>
<defs>
<filter id="filter0_f_59244_68816" x="-23.1984" y="-24.9633" width="61.0664" height="61.0672" filterUnits="userSpaceOnUse" color-interpolation-filters="sRGB">
<feFlood flood-opacity="0" result="BackgroundImageFix"/>
<feBlend mode="normal" in="SourceGraphic" in2="BackgroundImageFix" result="shape"/>
<feGaussianBlur stdDeviation="5.45236" result="effect1_foregroundBlur_59244_68816"/>
</filter>
<filter id="filter1_f_59244_68816" x="8.98694" y="4.31183" width="63.5778" height="63.5795" filterUnits="userSpaceOnUse" color-interpolation-filters="sRGB">
<feFlood flood-opacity="0" result="BackgroundImageFix"/>
<feBlend mode="normal" in="SourceGraphic" in2="BackgroundImageFix" result="shape"/>
<feGaussianBlur stdDeviation="6.4437" result="effect1_foregroundBlur_59244_68816"/>
</filter>
<filter id="filter2_f_59244_68816" x="-27.4565" y="5.67668" width="68.8555" height="68.8537" filterUnits="userSpaceOnUse" color-interpolation-filters="sRGB">
<feFlood flood-opacity="0" result="BackgroundImageFix"/>
<feBlend mode="normal" in="SourceGraphic" in2="BackgroundImageFix" result="shape"/>
<feGaussianBlur stdDeviation="7.94487" result="effect1_foregroundBlur_59244_68816"/>
</filter>
<filter id="filter3_f_59244_68816" x="-29.4617" y="-7.23267" width="65.5961" height="65.5942" filterUnits="userSpaceOnUse" color-interpolation-filters="sRGB">
<feFlood flood-opacity="0" result="BackgroundImageFix"/>
<feBlend mode="normal" in="SourceGraphic" in2="BackgroundImageFix" result="shape"/>
<feGaussianBlur stdDeviation="7.13001" result="effect1_foregroundBlur_59244_68816"/>
</filter>
<filter id="filter4_f_59244_68816" x="-2.84295" y="-30.0532" width="56.7045" height="56.704" filterUnits="userSpaceOnUse" color-interpolation-filters="sRGB">
<feFlood flood-opacity="0" result="BackgroundImageFix"/>
<feBlend mode="normal" in="SourceGraphic" in2="BackgroundImageFix" result="shape"/>
<feGaussianBlur stdDeviation="5.45236" result="effect1_foregroundBlur_59244_68816"/>
</filter>
<linearGradient id="paint0_linear_59244_68816" x1="54.952" y1="25.7925" x2="33.9026" y2="58.8701" gradientUnits="userSpaceOnUse">
<stop stop-color="#FF9500"/>
<stop offset="1" stop-color="#FFB800"/>
</linearGradient>
</defs>
</svg>
