<svg width="33" height="33" viewBox="0 0 33 33" fill="none" xmlns="http://www.w3.org/2000/svg">
<path fill-rule="evenodd" clip-rule="evenodd" d="M25.5325 0.292969C25.9847 0.292969 26.3788 0.600646 26.4886 1.03928L26.8874 2.63312C27.0725 3.37381 27.4556 4.05054 27.9954 4.59039C28.5353 5.13025 29.2117 5.51321 29.9524 5.69831L31.5465 6.09723C31.9852 6.207 32.2928 6.60116 32.2928 7.05332C32.2928 7.50548 31.9852 7.89963 31.5465 8.0094L29.9527 8.40824C29.212 8.59335 28.5353 8.97638 27.9954 9.51624C27.4556 10.0561 27.0726 10.7325 26.8875 11.4732L26.4886 13.0674C26.3788 13.506 25.9847 13.8137 25.5325 13.8137C25.0803 13.8137 24.6862 13.506 24.5764 13.0674L24.1776 11.4735C23.9926 10.733 23.6097 10.0563 23.0701 9.51643C22.5305 8.97665 21.8544 8.59363 21.1141 8.4083L19.5187 8.00945C19.0799 7.89977 18.7722 7.50556 18.7722 7.05332C18.7722 6.60107 19.0799 6.20686 19.5187 6.09718L21.1138 5.69839C21.8542 5.51306 22.5305 5.12998 23.0701 4.5902C23.6097 4.05036 23.9925 3.37403 24.1775 2.63349L24.5764 1.03928C24.6862 0.600646 25.0803 0.292969 25.5325 0.292969ZM23.0285 7.05332C23.5541 7.33703 24.0381 7.69668 24.4642 8.12292C24.8899 8.54884 25.2492 9.03265 25.5326 9.55785C25.8161 9.03244 26.1756 8.54847 26.6016 8.12244C27.0277 7.69638 27.5117 7.33689 28.0371 7.05332C27.5117 6.76974 27.0277 6.41025 26.6016 5.98419C26.1756 5.55816 25.8161 5.07419 25.5326 4.54878C25.2492 5.07398 24.8899 5.55779 24.4642 5.98371C24.0381 6.40995 23.5541 6.7696 23.0285 7.05332ZM11.6731 4.9128C12.1131 4.91285 12.4998 5.20456 12.6207 5.62765L13.8726 10.0102C14.1502 10.9812 14.6706 11.8656 15.3847 12.5797C16.0989 13.2939 16.9832 13.8143 17.9543 14.0918L22.3386 15.3454C22.7616 15.4663 23.0532 15.8531 23.0532 16.2931C23.0531 16.7331 22.7614 17.1198 22.3383 17.2406L17.9558 18.4926C16.9848 18.7701 16.1004 19.2906 15.3863 20.0047C14.6721 20.7188 14.1517 21.6032 13.8741 22.5742C13.87 22.5888 13.8655 22.6033 13.8606 22.6177L12.6207 26.9583C12.4998 27.3814 12.1131 27.6731 11.673 27.6731C11.233 27.6731 10.8462 27.3814 10.7254 26.9583L9.47344 22.5758C9.19586 21.6048 8.67543 20.7203 7.96131 20.0062C7.24717 19.2921 6.36283 18.7717 5.39177 18.4941L1.00748 17.2406C0.584422 17.1196 0.292796 16.7329 0.292847 16.2929C0.292898 15.8528 0.584614 15.4662 1.0077 15.3453L5.39023 14.0934C6.36124 13.8158 7.24566 13.2954 7.95977 12.5813C8.67392 11.8671 9.19433 10.9828 9.47189 10.0117L10.7254 5.62743C10.8464 5.20437 11.2331 4.91274 11.6731 4.9128ZM11.6726 9.48499L11.3671 10.5534C10.9975 11.8465 10.3045 13.0241 9.35357 13.9751C8.40261 14.926 7.22502 15.619 5.93195 15.9886L4.86504 16.2934L5.93349 16.5989C7.22654 16.9685 8.40416 17.6615 9.35511 18.6124C10.3061 19.5634 10.9991 20.741 11.3687 22.034L11.673 23.0995L11.9773 22.0342C11.9818 22.0186 11.9867 22.0031 11.9919 21.9877C12.3646 20.7122 13.0525 19.5508 13.9925 18.6109C14.9434 17.6599 16.121 16.9669 17.4141 16.5973L18.481 16.2926L17.4126 15.9871C16.1195 15.6175 14.9419 14.9245 13.9909 13.9735C13.04 13.0226 12.347 11.845 11.9774 10.5519L11.6726 9.48499ZM23.2226 21.0822C23.6469 21.0822 24.0236 21.3538 24.1577 21.7563L24.7643 23.5778C24.886 23.9429 25.0911 24.2748 25.3632 24.5469C25.6353 24.819 25.967 25.0241 26.3321 25.1458L28.1538 25.7525C28.5564 25.8866 28.828 26.2633 28.828 26.6876C28.828 27.1119 28.5564 27.4886 28.1538 27.6226L26.3323 28.2293C25.9673 28.351 25.6353 28.5561 25.3632 28.8282C25.0911 29.1003 24.8861 29.432 24.7644 29.7971L24.1577 31.6188C24.0236 32.0214 23.6469 32.293 23.2226 32.293C22.7983 32.293 22.4216 32.0214 22.2875 31.6188L21.6809 29.7973C21.5591 29.4323 21.354 29.1003 21.0819 28.8282C20.8098 28.5561 20.478 28.351 20.1128 28.2293L18.2913 27.6226C17.8888 27.4886 17.6172 27.1119 17.6172 26.6876C17.6172 26.2633 17.8888 25.8866 18.2913 25.7525L20.1128 25.1459C20.478 25.0241 20.8098 24.8191 21.0819 24.5469C21.354 24.2748 21.5591 23.9431 21.6808 23.5781L22.2875 21.7563C22.4216 21.3538 22.7983 21.0822 23.2226 21.0822ZM23.2226 24.949C23.0218 25.3117 22.7707 25.6457 22.4757 25.9407C22.1807 26.2357 21.8467 26.4868 21.484 26.6876C21.8467 26.8883 22.1807 27.1394 22.4757 27.4344C22.7707 27.7295 23.0218 28.0635 23.2226 28.4262C23.4233 28.0635 23.6744 27.7295 23.9694 27.4344C24.2645 27.1394 24.5985 26.8883 24.9612 26.6876C24.5985 26.4868 24.2645 26.2357 23.9694 25.9407C23.6744 25.6457 23.4233 25.3117 23.2226 24.949Z" fill="white"/>
<path d="M21.1141 8.4083C21.8544 8.59363 22.5305 8.97665 23.0701 9.51643C23.6097 10.0563 23.9926 10.733 24.1776 11.4735L24.5764 13.0674C24.6862 13.506 25.0803 13.8137 25.5325 13.8137C25.9847 13.8137 26.3788 13.506 26.4886 13.0674L26.8875 11.4732C27.0726 10.7325 27.4556 10.0561 27.9954 9.51624C28.5353 8.97638 29.212 8.59335 29.9527 8.40824L31.5465 8.0094C31.9852 7.89963 32.2928 7.50548 32.2928 7.05332C32.2928 6.60116 31.9852 6.207 31.5465 6.09723L29.9524 5.69831C29.2117 5.51321 28.5353 5.13025 27.9954 4.59039C27.4556 4.05054 27.0725 3.37381 26.8874 2.63312L26.4886 1.03928C26.3788 0.600646 25.9847 0.292969 25.5325 0.292969C25.0803 0.292969 24.6862 0.600646 24.5764 1.03928L24.1775 2.63349C23.9925 3.37403 23.6097 4.05036 23.0701 4.5902C22.5305 5.12998 21.8542 5.51306 21.1138 5.69839M21.1141 8.4083V8.4083ZM21.1141 8.4083L19.5187 8.00945C19.0799 7.89977 18.7722 7.50556 18.7722 7.05332C18.7722 6.60107 19.0799 6.20686 19.5187 6.09718L21.1138 5.69839M21.1138 5.69839V5.69839ZM13.8726 10.0102L12.6207 5.62765C12.4998 5.20456 12.1131 4.91285 11.6731 4.9128C11.2331 4.91274 10.8464 5.20437 10.7254 5.62743L9.47189 10.0117C9.19433 10.9828 8.67392 11.8671 7.95977 12.5813C7.24566 13.2954 6.36124 13.8158 5.39023 14.0934M13.8726 10.0102V10.0102ZM13.8726 10.0102C14.1502 10.9812 14.6706 11.8656 15.3847 12.5797C16.0989 13.2939 16.9832 13.8143 17.9543 14.0918L22.3386 15.3454C22.7616 15.4663 23.0532 15.8531 23.0532 16.2931C23.0531 16.7331 22.7614 17.1198 22.3383 17.2406L17.9558 18.4926M17.9558 18.4926V18.4926ZM17.9558 18.4926C16.9848 18.7701 16.1004 19.2906 15.3863 20.0047C14.6721 20.7188 14.1517 21.6032 13.8741 22.5742C13.87 22.5888 13.8655 22.6033 13.8606 22.6177L12.6207 26.9583C12.4998 27.3814 12.1131 27.6731 11.673 27.6731C11.233 27.6731 10.8462 27.3814 10.7254 26.9583L9.47344 22.5758M9.47344 22.5758V22.5758ZM9.47344 22.5758C9.19586 21.6048 8.67543 20.7203 7.96131 20.0062C7.24717 19.2921 6.36283 18.7717 5.39177 18.4941L1.00748 17.2406C0.584422 17.1196 0.292796 16.7329 0.292847 16.2929C0.292898 15.8528 0.584614 15.4662 1.0077 15.3453L5.39023 14.0934M5.39023 14.0934V14.0934ZM11.3671 10.5534L11.6726 9.48499L11.9774 10.5519C12.347 11.845 13.04 13.0226 13.9909 13.9735C14.9419 14.9245 16.1195 15.6175 17.4126 15.9871M11.3671 10.5534V10.5534ZM11.3671 10.5534C10.9975 11.8465 10.3045 13.0241 9.35357 13.9751C8.40261 14.926 7.22502 15.619 5.93195 15.9886L4.86504 16.2934L5.93349 16.5989M5.93349 16.5989V16.5989ZM5.93349 16.5989C7.22654 16.9685 8.40416 17.6615 9.35511 18.6124C10.3061 19.5634 10.9991 20.741 11.3687 22.034L11.673 23.0995L11.9773 22.0342C11.9818 22.0186 11.9867 22.0031 11.9919 21.9877C12.3646 20.7122 13.0525 19.5508 13.9925 18.6109C14.9434 17.6599 16.121 16.9669 17.4141 16.5973L18.481 16.2926L17.4126 15.9871M17.4126 15.9871V15.9871ZM24.7643 23.5778L24.1577 21.7563C24.0236 21.3538 23.6469 21.0822 23.2226 21.0822C22.7983 21.0822 22.4216 21.3538 22.2875 21.7563L21.6808 23.5781M24.7643 23.5778V23.5778ZM24.7643 23.5778C24.886 23.9429 25.0911 24.2748 25.3632 24.5469C25.6353 24.819 25.967 25.0241 26.3321 25.1458M26.3321 25.1458V25.1458ZM26.3321 25.1458L28.1538 25.7525C28.5564 25.8866 28.828 26.2633 28.828 26.6876C28.828 27.1119 28.5564 27.4886 28.1538 27.6226L26.3323 28.2293M26.3323 28.2293V28.2293ZM26.3323 28.2293C25.9673 28.351 25.6353 28.5561 25.3632 28.8282C25.0911 29.1003 24.8861 29.432 24.7644 29.7971M24.7644 29.7971V29.7971ZM24.7644 29.7971L24.1577 31.6188C24.0236 32.0214 23.6469 32.293 23.2226 32.293C22.7983 32.293 22.4216 32.0214 22.2875 31.6188L21.6809 29.7973M21.6809 29.7973V29.7973ZM21.6809 29.7973C21.5591 29.4323 21.354 29.1003 21.0819 28.8282C20.8098 28.5561 20.478 28.351 20.1128 28.2293L18.2913 27.6226C17.8888 27.4886 17.6172 27.1119 17.6172 26.6876C17.6172 26.2633 17.8888 25.8866 18.2913 25.7525L20.1128 25.1459C20.478 25.0241 20.8098 24.8191 21.0819 24.5469C21.354 24.2748 21.5591 23.9431 21.6808 23.5781M21.6808 23.5781V23.5781ZM24.4642 8.12292C24.0381 7.69668 23.5541 7.33703 23.0285 7.05332C23.5541 6.7696 24.0381 6.40995 24.4642 5.98371C24.8899 5.55779 25.2492 5.07398 25.5326 4.54878C25.8161 5.07419 26.1756 5.55816 26.6016 5.98419C27.0277 6.41025 27.5117 6.76974 28.0371 7.05332C27.5117 7.3369 27.0277 7.69638 26.6016 8.12244C26.1756 8.54847 25.8161 9.03244 25.5326 9.55785C25.2492 9.03265 24.8899 8.54884 24.4642 8.12292ZM22.4757 25.9407C22.7707 25.6457 23.0218 25.3117 23.2226 24.949C23.4233 25.3117 23.6744 25.6457 23.9694 25.9407C24.2645 26.2357 24.5985 26.4868 24.9612 26.6876C24.5985 26.8883 24.2645 27.1394 23.9694 27.4344C23.6744 27.7295 23.4233 28.0635 23.2226 28.4262C23.0218 28.0635 22.7707 27.7295 22.4757 27.4344C22.1807 27.1394 21.8467 26.8883 21.484 26.6876C21.8467 26.4868 22.1807 26.2357 22.4757 25.9407Z" stroke="white" stroke-width="0.585714" stroke-linecap="round" stroke-linejoin="round"/>
</svg>
